<svg width="512" height="512" viewBox="0 0 512 512" fill="none" xmlns="http://www.w3.org/2000/svg">
<path d="M357.22 93.5899C351.24 101.43 352.74 112.64 360.59 118.62C403.18 151.1 428.65 201.42 428.65 256C428.65 344.97 361.36 418.22 274.89 427.63L275.14 427.38C268.86 428.07 262.47 428.43 256 428.43C245.82 428.43 235.84 427.55 226.14 425.85L218.11 433.88C211.77 440.22 211.19 450.14 216.38 457.13L218.11 459.13L265.74 506.76C272.72 513.74 284.02 513.74 291 506.76C297.34 500.42 297.92 490.5 292.73 483.51L291 481.51L273.13 463.68C380.2 454.97 464.37 365.31 464.37 256C464.37 190.16 433.61 129.39 382.25 90.2199C374.41 84.2399 363.2 85.7499 357.22 93.5899ZM221 5.22994C214.02 12.1999 214.02 23.5099 221 30.4899L238.84 48.3199C131.79 57.0499 47.6299 146.7 47.6299 256C47.6299 318.98 75.7599 377.39 123.38 416.72C130.98 423 142.24 421.93 148.52 414.32C154.8 406.72 153.73 395.46 146.12 389.17C106.64 356.56 83.3499 308.21 83.3499 256C83.3499 167.04 150.63 93.7899 237.09 84.3699L236.85 84.6099C243.14 83.9199 249.53 83.5599 256.01 83.5599C266.2 83.5599 276.18 84.4399 285.88 86.1399L293.9 78.1199C300.87 71.1499 300.87 59.8399 293.9 52.8599L246.26 5.22994C239.28 -1.74006 227.98 -1.74006 221 5.22994ZM398.88 256C398.88 334.91 334.91 398.88 256 398.88C177.09 398.88 113.12 334.91 113.12 256C113.12 177.09 177.09 113.12 256 113.12C334.91 113.12 398.88 177.09 398.88 256ZM221 195.74C214.02 188.76 202.72 188.76 195.74 195.74C188.77 202.71 188.77 214.02 195.74 221L230.74 256L195.74 291C188.77 297.97 188.77 309.28 195.74 316.26C202.71 323.24 214.02 323.24 221 316.26L256 281.26L291 316.26C297.98 323.24 309.28 323.24 316.26 316.26C323.23 309.29 323.23 297.98 316.26 291L281.26 256L316.26 221C323.23 214.03 323.23 202.72 316.26 195.74C309.28 188.76 297.98 188.76 291 195.74L256 230.74L221 195.74Z" fill="#E92020"/>
</svg>
