<svg width="512" height="512" viewBox="0 0 512 512" fill="none" xmlns="http://www.w3.org/2000/svg">
<g clip-path="url(#clip0_716_1998)">
<path d="M357.22 93.5899C351.24 101.43 352.74 112.64 360.59 118.62C403.18 151.1 428.65 201.42 428.65 256C428.65 344.97 361.36 418.22 274.89 427.63L275.01 427.51C268.77 428.2 262.43 428.55 256 428.55C245.78 428.55 235.77 427.66 226.04 425.96L218.11 433.89C211.77 440.23 211.19 450.15 216.38 457.14L218.11 459.14L265.74 506.77C272.72 513.75 284.02 513.75 291 506.77C297.34 500.43 297.92 490.51 292.73 483.52L291 481.52L273.13 463.69C380.2 454.97 464.37 365.31 464.37 256C464.37 190.16 433.61 129.39 382.25 90.2199C374.41 84.2399 363.2 85.7499 357.22 93.5899ZM221 5.22994C214.02 12.1999 214.02 23.5099 221 30.4899L238.84 48.3199C131.79 57.0499 47.6299 146.7 47.6299 256C47.6299 318.98 75.7599 377.39 123.38 416.72C130.98 423 142.24 421.93 148.52 414.32C154.8 406.72 153.73 395.46 146.12 389.17C106.64 356.56 83.3499 308.21 83.3499 256C83.3499 167.04 150.63 93.7899 237.09 84.3699L236.96 84.4999C243.22 83.8099 249.57 83.4599 256.01 83.4599C266.22 83.4599 276.23 84.3499 285.96 86.0499L293.9 78.1099C300.87 71.1399 300.87 59.8299 293.9 52.8499L246.26 5.22994C239.28 -1.74006 227.98 -1.74006 221 5.22994ZM398.88 256C398.88 334.91 334.91 398.88 256 398.88C177.09 398.88 113.12 334.91 113.12 256C113.12 177.09 177.09 113.12 256 113.12C334.91 113.12 398.88 177.09 398.88 256ZM328.16 207.65C321.18 200.67 309.88 200.67 302.9 207.65L232.18 278.37L209.09 255.28C202.12 248.3 190.81 248.3 183.83 255.28C176.86 262.25 176.86 273.56 183.83 280.54L219.55 316.26C226.53 323.24 237.83 323.24 244.81 316.26L328.16 232.91C335.14 225.93 335.14 214.63 328.16 207.65Z" fill="#3BAE2D"/>
</g>
<defs>
<clipPath id="clip0_716_1998">
<rect width="512" height="512" fill="white"/>
</clipPath>
</defs>
</svg>
