<svg width="512" height="512" viewBox="0 0 512 512" fill="none" xmlns="http://www.w3.org/2000/svg">
<g clip-path="url(#clip0_712_1992)">
<path d="M256 512C114.61 512 0 397.38 0 256C0 114.62 114.61 0 256 0C397.38 0 512 114.62 512 256C512 397.38 397.38 512 256 512ZM339.73 224H307.2C296.6 224 288 232.6 288 243.2C288 253.8 296.6 262.4 307.2 262.4H377.6C388.2 262.4 396.8 253.8 396.8 243.2V160C396.8 149.4 388.2 140.8 377.6 140.8C367 140.8 358.4 149.4 358.4 160V179.19C335.05 148.1 297.88 128 256 128C216.66 128 181.65 144.91 158.03 173.33C151.25 181.49 152.37 193.59 160.52 200.37C168.68 207.15 180.78 206.03 187.56 197.88C203.85 178.28 228.01 166.41 256 166.41C294.21 166.4 326.85 190.32 339.73 224ZM153.6 352V332.8C176.95 363.89 214.11 384 256 384C295.04 384 330.34 366.49 353.82 338.87C360.69 330.79 359.71 318.67 351.63 311.81C343.55 304.94 331.43 305.92 324.57 314C308.14 333.33 283.41 345.6 256 345.6C220.28 345.6 189.4 324.68 175.02 294.4H204.8C215.4 294.4 224 285.8 224 275.2C224 264.6 215.4 256 204.8 256H134.4C123.8 256 115.2 264.6 115.2 275.2V352C115.2 362.6 123.8 371.2 134.4 371.2C145 371.2 153.6 362.6 153.6 352Z" fill="#0576EE"/>
</g>
<defs>
<clipPath id="clip0_712_1992">
<rect width="512" height="512" fill="white"/>
</clipPath>
</defs>
</svg>
