<svg width="512" height="512" viewBox="0 0 512 512" fill="none" xmlns="http://www.w3.org/2000/svg">
<g clip-path="url(#clip0_716_1998)">
<path d="M321.35 93.5899C315.37 101.43 316.87 112.64 324.72 118.62C367.31 151.1 392.78 201.42 392.78 256C392.78 344.97 325.49 418.22 239.02 427.63L239.14 427.51C232.9 428.2 226.56 428.55 220.13 428.55C209.91 428.55 199.9 427.66 190.17 425.96L182.24 433.89C175.9 440.23 175.32 450.15 180.51 457.14L182.24 459.14L229.87 506.77C236.85 513.75 248.15 513.75 255.13 506.77C261.47 500.43 262.05 490.51 256.86 483.52L255.13 481.52L237.26 463.69C344.33 454.97 428.5 365.31 428.5 256C428.5 190.16 397.74 129.39 346.38 90.2199C338.54 84.2399 327.33 85.7499 321.35 93.5899ZM185.13 5.22994C178.15 12.1999 178.15 23.5099 185.13 30.4899L202.97 48.3199C95.9198 57.0499 11.7598 146.7 11.7598 256C11.7598 318.98 39.8898 377.39 87.5098 416.72C95.1098 423 106.37 421.93 112.65 414.32C118.93 406.72 117.86 395.46 110.25 389.17C70.7698 356.56 47.4798 308.21 47.4798 256C47.4798 167.04 114.76 93.7899 201.22 84.3699L201.09 84.4999C207.35 83.8099 213.7 83.4599 220.14 83.4599C230.35 83.4599 240.36 84.3499 250.09 86.0499L258.03 78.1099C265 71.1399 265 59.8299 258.03 52.8499L210.39 5.22994C203.41 -1.74006 192.11 -1.74006 185.13 5.22994Z" fill="#0576EE"/>
</g>
<defs>
<clipPath id="clip0_716_1998">
<rect width="512" height="512" fill="white"/>
</clipPath>
</defs>
</svg>
